<?xml version="1.0" encoding="UTF-8"?>
<svg width="32px" height="24px" viewBox="0 0 32 24" version="1.1" xmlns="http://www.w3.org/2000/svg" xmlns:xlink="http://www.w3.org/1999/xlink">
    <!-- Generator: Sketch 55.2 (78181) - https://sketchapp.com -->
    <title>American Express – Débito</title>
    <desc>Created with Sketch.</desc>
    <defs>
        <rect id="path-1" x="0" y="0" width="32" height="24" rx="2"></rect>
    </defs>
    <g id="Lemon" stroke="none" stroke-width="1" fill="none" fill-rule="evenodd">
        <g id="Credit-card" transform="translate(-802.000000, -437.000000)">
            <g id="Modal" transform="translate(430.000000, 79.000000)">
                <g id="Card" transform="translate(30.000000, 315.000000)">
                    <g id="American-Express-–-Débito" transform="translate(342.000000, 43.000000)">
                        <mask id="mask-2" fill="white">
                            <use xlink:href="#path-1"></use>
                        </mask>
                        <use id="Mask" fill="#2557D6" xlink:href="#path-1"></use>
                        <g id="amex" mask="url(#mask-2)" fill="#FFFFFF" fill-rule="nonzero">
                            <g transform="translate(0.000000, 7.000000)">
                                <path d="M0,4.58095586 L1.56304798,4.58095586 L1.91545781,3.8514106 L2.70442638,3.8514106 L3.05591279,4.58095586 L6.13110109,4.58095586 L6.13110109,4.02319683 L6.40559551,4.58333333 L8.00200132,4.58333333 L8.27649575,4.01487494 L8.27649575,4.58095586 L15.9189289,4.58095586 L15.9153496,3.38340835 L16.0632161,3.38340835 C16.1667577,3.38648208 16.1970001,3.39470227 16.1970001,3.54142335 L16.1970001,4.58095586 L20.1496929,4.58095586 L20.1496929,4.30217525 C20.4685123,4.44879725 20.9644023,4.58095586 21.6169319,4.58095586 L23.2798262,4.58095586 L23.635699,3.8514106 L24.4246673,3.8514106 L24.7726913,4.58095586 L27.9771615,4.58095586 L27.9771615,3.88796747 L28.4624325,4.58095586 L31.030303,4.58095586 L31.030303,0 L28.4889814,0 L28.4889814,0.541016529 L28.1331086,0 L25.5254143,0 L25.5254143,0.541016529 L25.1986302,0 L21.676263,0 C21.0866431,0 20.5683596,0.0706364372 20.1496929,0.267486694 L20.1496929,0 L17.7189535,0 L17.7189535,0.267486694 C17.4525397,0.0645932958 17.0895103,0 16.685849,0 L7.80542186,0 L7.20956827,1.18318248 L6.59767024,0 L3.80055474,0 L3.80055474,0.541016529 L3.4932783,0 L1.10778811,0 L0,2.17803478 L0,4.58095586 L0,4.58095586 L0,4.58095586 Z M9.86587569,3.92018821 L8.92810162,3.92018821 L8.92463945,1.34775965 L7.59822594,3.92018821 L6.79505885,3.92018821 L5.4651823,1.34548089 L5.4651823,3.92018821 L3.60467105,3.92018821 L3.25318464,3.1875722 L1.34857867,3.1875722 L0.9935139,3.92018821 L2.16928193e-06,3.92018821 L1.63807876,0.635650905 L2.99715944,0.635650905 L4.55293373,3.74543033 L4.55293373,0.635650905 L6.04591425,0.635650905 L7.2430455,2.86381448 L8.34275343,0.635650905 L9.86574553,0.635650905 L9.86574553,3.92018821 L9.86587569,3.92018821 Z M2.94055784,2.50591549 L2.3144619,1.1965192 L1.69194433,2.50591549 L2.94055784,2.50591549 Z M13.597904,3.92018821 L10.5421077,3.92018821 L10.5421077,0.635650905 L13.597904,0.635650905 L13.597904,1.31962376 L11.456896,1.31962376 L11.456896,1.91166129 L13.5465371,1.91166129 L13.5465371,2.58493478 L11.456896,2.58493478 L11.456896,3.24087158 L13.597904,3.24087158 L13.597904,3.92018821 Z M17.9041811,1.52023915 C17.9041811,2.04391862 17.496941,2.31447606 17.2596154,2.39571277 C17.459772,2.46109843 17.6307249,2.57661288 17.7121038,2.67231372 C17.8412702,2.83567896 17.8635487,2.98160731 17.8635487,3.27495114 L17.8635487,3.92018821 L16.940911,3.92018821 L16.9374489,3.50598043 C16.9374489,3.30833706 16.9594961,3.02410786 16.793045,2.86609286 C16.6593764,2.75057803 16.4556409,2.72551363 16.1263179,2.72551363 L15.1443486,2.72551363 L15.1443486,3.92018821 L14.2296761,3.92018821 L14.2296761,0.635650905 L16.333631,0.635650905 C16.8011251,0.635650905 17.1455702,0.646251175 17.4413041,0.792972637 C17.7306885,0.939694098 17.9041811,1.15388141 17.9041811,1.52023915 L17.9041811,1.52023915 Z M16.7478445,2.0079649 C16.6221403,2.07344966 16.4734659,2.07562894 16.2953566,2.07562894 L15.1841051,2.07562894 L15.1841051,1.34608405 L16.3104778,1.34608405 C16.4698875,1.34608405 16.6362228,1.35222666 16.7442661,1.40532748 C16.8629288,1.45317789 16.936343,1.55502096 16.936343,1.69569891 C16.936343,1.83925016 16.8665073,1.95476499 16.7478445,2.0079649 Z M19.371214,3.92018821 L18.4378418,3.92018821 L18.4378418,0.635650905 L19.371214,0.635650905 L19.371214,3.92018821 Z M30.2063208,3.92018821 L28.9100343,3.92018821 L27.1761502,1.45495258 L27.1761502,3.92018821 L25.3132152,3.92018821 L24.9572269,3.1875722 L23.0570075,3.1875722 L22.7116387,3.92018821 L21.64125,3.92018821 C21.1966109,3.92018821 20.6336554,3.83578129 20.314836,3.55690159 C19.9933619,3.27802226 19.8261029,2.90027189 19.8261029,2.30298396 C19.8261029,1.81586136 19.9260655,1.37054567 20.3192227,1.01865205 C20.6149557,0.756515229 21.078064,0.635650905 21.7084304,0.635650905 L22.5940146,0.635650905 L22.5940146,1.33943775 L21.7270151,1.33943775 C21.3931895,1.33943775 21.2046915,1.38203777 21.0231187,1.53400963 C20.8671721,1.67231011 20.7601679,1.93375366 20.7601679,2.27801865 C20.7601679,2.62991189 20.8416617,2.8836281 21.0116914,3.04937044 C21.1525164,3.1793494 21.4084266,3.21877883 21.6492147,3.21877883 L22.0600324,3.21877883 L23.3492775,0.635749997 L24.7199014,0.635749997 L26.2686346,3.7424583 L26.2686346,0.635749997 L27.6614208,0.635749997 L29.2693706,2.92325572 L29.2693706,0.635749997 L30.2063208,0.635749997 L30.2063208,3.92018821 Z M24.646102,2.50591549 L24.0130803,1.1965192 L23.3835213,2.50591549 L24.646102,2.50591549 Z" id="Path"></path>
                                <path d="M31.9981727,9.93294902 C31.7833236,10.2116421 31.3646736,10.3529191 30.7979165,10.3529191 L29.0898337,10.3529191 L29.0898337,9.64891006 L30.7909969,9.64891006 C30.9597517,9.64891006 31.077835,9.62920835 31.148931,9.56762869 C31.21054,9.51684027 31.2535094,9.44308302 31.2535094,9.3534857 C31.2535094,9.25784929 31.21054,9.18191384 31.145471,9.13637268 C31.0812951,9.08627706 30.9878773,9.06350629 30.8338552,9.06350629 C30.0033634,9.03845904 28.9672857,9.08627706 28.9672857,8.04734202 C28.9672857,7.57113825 29.3081433,7.06988686 30.236294,7.06988686 L31.9981727,7.06988686 L31.9981727,6.41666667 L30.3611858,6.41666667 C29.8671989,6.41666667 29.5083721,6.52160966 29.2542358,6.6847658 L29.2542358,6.41666667 L26.833075,6.41666667 C26.4458991,6.41666667 25.9914224,6.50180893 25.7764609,6.6847658 L25.7764609,6.41666667 L21.4529043,6.41666667 L21.4529043,6.6847658 C21.1088098,6.46458371 20.5282135,6.41666667 20.2602376,6.41666667 L17.4083731,6.41666667 L17.4083731,6.6847658 C17.1361556,6.45092147 16.5307818,6.41666667 16.1617986,6.41666667 L12.9700807,6.41666667 L12.2397038,7.11780428 L11.5556445,6.41666667 L6.78787879,6.41666667 L6.78787879,10.9977243 L11.4659099,10.9977243 L12.2184974,10.285498 L12.9274459,10.9977243 L15.8110077,11 L15.8110077,9.92235435 L16.0944974,9.92235435 C16.4770975,9.92760124 16.9283377,9.91393938 17.3264508,9.76127702 L17.3264508,10.9976237 L19.7048653,10.9976237 L19.7048653,9.80365009 L19.8196002,9.80365009 C19.9660331,9.80365009 19.9804307,9.80899638 19.9804307,9.93878895 L19.9804307,10.9975247 L27.2056302,10.9975247 C27.664348,10.9975247 28.1438254,10.8933739 28.409346,10.7043776 L28.409346,10.9975247 L30.7011503,10.9975247 C31.1780612,10.9975247 31.6438106,10.9382219 31.9981727,10.7863518 L31.9981727,9.93294753 L31.9981727,9.93294902 Z M17.6722093,8.1708638 C17.6722093,9.08287766 16.9051123,9.2711812 16.1319883,9.2711812 L15.0283863,9.2711812 L15.0283863,10.3723891 L13.3092544,10.3723891 L12.2201616,9.28553624 L11.0883224,10.3723891 L7.58487719,10.3723891 L7.58487719,7.08925823 L11.1422303,7.08925823 L12.2304296,8.16541849 L13.3554607,7.08925823 L16.181655,7.08925823 C16.8835715,7.08925823 17.6722093,7.26162193 17.6722093,8.1708638 Z M10.640384,9.68181101 L8.46577036,9.68181101 L8.46577036,9.02859044 L10.4075649,9.02859044 L10.4075649,8.3587376 L8.46577036,8.3587376 L8.46577036,7.76184942 L10.6832423,7.76184942 L11.6506798,8.71861299 L10.640384,9.68181101 Z M14.1443028,10.0577413 L12.786341,8.72041153 L14.1443028,7.42555383 L14.1443028,10.0577413 Z M16.1525478,8.59792821 L15.0095475,8.59792821 L15.0095475,7.76184942 L16.1628158,7.76184942 C16.4821331,7.76184942 16.7037907,7.87728694 16.7037907,8.16439534 C16.7037907,8.44833491 16.4924011,8.59792821 16.1525478,8.59792821 Z M22.1405864,7.08925562 L25.0925656,7.08925562 L25.0925656,7.76821923 L23.0214145,7.76821923 L23.0214145,8.36510741 L25.0420061,8.36510741 L25.0420061,9.03496025 L23.0214145,9.03496025 L23.0214145,9.68818081 L25.0925656,9.69114786 L25.0925656,10.3723865 L22.1405864,10.3723865 L22.1405864,7.08925562 Z M21.0057092,8.84665671 C21.2025896,8.91110775 21.3635313,9.02664392 21.4389803,9.12228071 C21.5638717,9.28256621 21.5819528,9.43215913 21.585524,9.72154476 L21.585524,10.3723891 L20.6975535,10.3723891 L20.6975535,9.96162623 C20.6975535,9.76411589 20.7189827,9.47166157 20.5545806,9.31899921 C20.4253361,9.20138387 20.2283441,9.17326719 19.9056788,9.17326719 L18.9604516,9.17326719 L18.9604516,10.3723891 L18.0716996,10.3723891 L18.0716996,7.08925823 L20.11372,7.08925823 C20.5615006,7.08925823 20.8876259,7.10678174 21.177924,7.24419744 C21.4570611,7.39379074 21.6326239,7.59872655 21.6326239,7.97325406 C21.632498,8.49727585 21.2385279,8.76468254 21.0057092,8.84665671 Z M20.5057423,8.43160361 C20.3874358,8.49387645 20.2411145,8.49922274 20.0690116,8.49922274 L18.99454,8.49922274 L18.99454,7.76184942 L20.0836324,7.76184942 C20.2411145,7.76184942 20.3987081,7.76481647 20.5057423,7.82115223 C20.6203661,7.87431653 20.6888947,7.97599279 20.6888947,8.11647755 C20.6888947,8.25696269 20.6203661,8.37012298 20.5057423,8.43160361 Z M28.4902955,8.64073102 C28.6625107,8.7988387 28.7548118,8.99842821 28.7548118,9.33632467 C28.7548118,10.0426109 28.2573652,10.37229 27.3653763,10.37229 L25.6426724,10.37229 L25.6426724,9.66828143 L27.3584567,9.66828143 C27.5262068,9.66828143 27.6451833,9.64857972 27.7197388,9.58699969 C27.7805663,9.53621126 27.8242057,9.46245439 27.8242057,9.37285708 C27.8242057,9.27721992 27.7769947,9.20128522 27.7162792,9.15574368 C27.6486429,9.10564806 27.5553371,9.08287766 27.4013151,9.08287766 C26.5741716,9.05783004 25.5383171,9.10564806 25.5383171,8.06671264 C25.5383171,7.59050925 25.8756031,7.08925823 26.8028608,7.08925823 L28.5760125,7.08925823 L28.5760125,7.78801997 L26.9535344,7.78801997 C26.7927047,7.78801997 26.6881254,7.79336625 26.5991719,7.84732277 C26.5022946,7.90048707 26.4663559,7.97939218 26.4663559,8.08354297 C26.4663559,8.20739584 26.5486129,8.29164724 26.6598883,8.32808024 C26.7531944,8.35689011 26.8534202,8.36530508 27.0040939,8.36530508 L27.4802237,8.37669047 C27.9603706,8.38708559 28.2899555,8.46074382 28.4902955,8.64073102 Z M32,7.76184942 L30.3880139,7.76184942 C30.2270718,7.76184942 30.1201492,7.76719571 30.0300794,7.82115223 C29.9367737,7.87431653 29.9008354,7.95322202 29.9008354,8.05737318 C29.9008354,8.1812253 29.979632,8.26547669 30.0942553,8.3019097 C30.1875615,8.33071957 30.2877877,8.33913492 30.4351129,8.33913492 L30.9144792,8.3505203 C31.3981977,8.36111385 31.7210862,8.43487073 31.9179665,8.61475891 C31.9537933,8.63980653 31.9753344,8.66792321 32,8.6960399 L32,7.76184942 Z" id="path13"></path>
                            </g>
                        </g>
                    </g>
                </g>
            </g>
        </g>
    </g>
</svg>