<?xml version="1.0" encoding="UTF-8"?>
<svg width="30px" height="55px" viewBox="0 0 30 55" version="1.1" xmlns="http://www.w3.org/2000/svg" xmlns:xlink="http://www.w3.org/1999/xlink">
    <!-- Generator: Sketch 55.2 (78181) - https://sketchapp.com -->
    <title>arrow</title>
    <desc>Created with Sketch.</desc>
    <g id="Lemon" stroke="none" stroke-width="1" fill="none" fill-rule="evenodd" opacity="0.5">
        <g id="Desktop-Prompt" transform="translate(-893.000000, -528.000000)" fill="#34425C">
            <path d="M929.111255,551.862995 C927.107081,552.224064 925.053564,552.60458 923.007666,553.019222 C914.672419,554.710813 906.68402,557.517901 898.82841,560.745502 C895.766275,562.004105 892.720467,563.303805 889.666314,564.582222 C886.984406,565.705791 884.35692,566.943845 881.836464,568.405733 C881.485625,568.609384 881.124989,568.797991 880.757098,568.966417 C880.455238,569.104386 880.036553,568.795056 880.008979,568.443161 C879.944036,567.617547 880.23102,566.936874 880.881543,566.445541 C881.251248,566.165934 881.658323,565.928891 882.072655,565.721203 C883.630208,564.938154 885.184495,564.147032 886.763817,563.411318 C888.923275,562.404803 891.103776,561.444889 893.275933,560.467362 C900.387777,557.267281 907.713681,554.663845 915.170923,552.42588 C918.340813,551.474773 921.547347,550.668607 924.779641,549.964083 C924.947623,549.927756 925.113791,549.878219 925.277782,549.823545 C925.324222,549.808133 925.368848,549.759697 925.395333,549.714931 C925.472612,549.585401 925.440322,549.477154 925.302453,549.42248 C923.467349,548.691903 921.595238,548.071408 919.685757,547.577874 C916.875414,546.851334 914.086477,546.055075 911.341077,545.107637 C910.354228,544.76675 909.377175,544.393573 908.406289,544.008653 C908.086289,543.881692 907.780438,543.697488 907.501073,543.492736 C907.255449,543.312202 907.166923,543.018283 907.194497,542.710421 C907.25037,542.091394 907.543885,541.594924 908.024611,541.223948 C908.256811,541.044882 908.544521,540.95278 908.844566,541.024333 C909.068784,541.077906 909.295542,541.145423 909.502708,541.245965 C911.973822,542.447325 914.5926,543.214229 917.232784,543.902974 C920.097187,544.650063 922.932564,545.48375 925.745447,546.414309 C927.449213,546.977928 929.218285,547.341198 930.959421,547.787397 C931.915068,548.032146 932.874706,548.259648 933.831079,548.500728 C934.054571,548.557236 934.278427,548.621451 934.49176,548.708782 C934.848042,548.854824 935.080604,549.36487 934.973938,549.73658 C934.82591,550.252497 934.594436,550.720345 934.185909,551.079579 C934.098472,551.156636 934.008857,551.234428 933.909084,551.292404 C931.367222,552.771171 929.769397,555.175726 927.989077,557.411489 C926.924586,558.748617 926.238871,560.305174 925.351795,561.743578 C925.138462,562.089235 924.98862,562.476723 924.825355,562.851735 C924.24159,564.191065 923.670887,565.535898 923.08168,566.871925 C922.914423,567.251341 922.676781,567.586357 922.265715,567.744141 C922.040409,567.830738 921.820182,567.842847 921.598866,567.722491 C921.315873,567.568744 921.179818,567.319592 921.168571,567.011362 C921.162766,566.840002 921.192154,566.655798 921.252381,566.495445 C921.498004,565.83789 921.749433,565.181802 922.022268,564.535254 C922.272246,563.94228 922.588981,563.376092 922.811022,562.772843 C923.177462,561.777336 923.707168,560.87283 924.199867,559.941537 C925.440322,557.59716 927.07987,555.543399 928.674429,553.454045 C928.957786,553.082335 929.248761,552.716863 929.521596,552.337815 C929.583637,552.252318 929.63044,552.039126 929.60468,552.024448 C929.471891,551.947024 929.298466,551.829237 929.111255,551.862995" id="arrow" transform="translate(907.500000, 555.000000) scale(1, -1) rotate(-93.000000) translate(-907.500000, -555.000000) "></path>
        </g>
    </g>
</svg>