<?xml version="1.0" encoding="UTF-8"?>
<svg width="48px" height="36px" viewBox="0 0 48 36" version="1.1" xmlns="http://www.w3.org/2000/svg" xmlns:xlink="http://www.w3.org/1999/xlink">
    <!-- Generator: Sketch 55.2 (78181) - https://sketchapp.com -->
    <title>arrow</title>
    <desc>Created with Sketch.</desc>
    <g id="Lemon" stroke="none" stroke-width="1" fill="none" fill-rule="evenodd" opacity="0.5">
        <g id="Desktop-Prompt" transform="translate(-667.000000, -492.000000)" fill="#34425C">
            <path d="M716.111255,508.862995 C714.107081,509.224064 712.053564,509.60458 710.007666,510.019222 C701.672419,511.710813 693.68402,514.517901 685.82841,517.745502 C682.766275,519.004105 679.720467,520.303805 676.666314,521.582222 C673.984406,522.705791 671.35692,523.943845 668.836464,525.405733 C668.485625,525.609384 668.124989,525.797991 667.757098,525.966417 C667.455238,526.104386 667.036553,525.795056 667.008979,525.443161 C666.944036,524.617547 667.23102,523.936874 667.881543,523.445541 C668.251248,523.165934 668.658323,522.928891 669.072655,522.721203 C670.630208,521.938154 672.184495,521.147032 673.763817,520.411318 C675.923275,519.404803 678.103776,518.444889 680.275933,517.467362 C687.387777,514.267281 694.713681,511.663845 702.170923,509.42588 C705.340813,508.474773 708.547347,507.668607 711.779641,506.964083 C711.947623,506.927756 712.113791,506.878219 712.277782,506.823545 C712.324222,506.808133 712.368848,506.759697 712.395333,506.714931 C712.472612,506.585401 712.440322,506.477154 712.302453,506.42248 C710.467349,505.691903 708.595238,505.071408 706.685757,504.577874 C703.875414,503.851334 701.086477,503.055075 698.341077,502.107637 C697.354228,501.76675 696.377175,501.393573 695.406289,501.008653 C695.086289,500.881692 694.780438,500.697488 694.501073,500.492736 C694.255449,500.312202 694.166923,500.018283 694.194497,499.710421 C694.25037,499.091394 694.543885,498.594924 695.024611,498.223948 C695.256811,498.044882 695.544521,497.95278 695.844566,498.024333 C696.068784,498.077906 696.295542,498.145423 696.502708,498.245965 C698.973822,499.447325 701.5926,500.214229 704.232784,500.902974 C707.097187,501.650063 709.932564,502.48375 712.745447,503.414309 C714.449213,503.977928 716.218285,504.341198 717.959421,504.787397 C718.915068,505.032146 719.874706,505.259648 720.831079,505.500728 C721.054571,505.557236 721.278427,505.621451 721.49176,505.708782 C721.848042,505.854824 722.080604,506.36487 721.973938,506.73658 C721.82591,507.252497 721.594436,507.720345 721.185909,508.079579 C721.098472,508.156636 721.008857,508.234428 720.909084,508.292404 C718.367222,509.771171 716.769397,512.175726 714.989077,514.411489 C713.924586,515.748617 713.238871,517.305174 712.351795,518.743578 C712.138462,519.089235 711.98862,519.476723 711.825355,519.851735 C711.24159,521.191065 710.670887,522.535898 710.08168,523.871925 C709.914423,524.251341 709.676781,524.586357 709.265715,524.744141 C709.040409,524.830738 708.820182,524.842847 708.598866,524.722491 C708.315873,524.568744 708.179818,524.319592 708.168571,524.011362 C708.162766,523.840002 708.192154,523.655798 708.252381,523.495445 C708.498004,522.83789 708.749433,522.181802 709.022268,521.535254 C709.272246,520.94228 709.588981,520.376092 709.811022,519.772843 C710.177462,518.777336 710.707168,517.87283 711.199867,516.941537 C712.440322,514.59716 714.07987,512.543399 715.674429,510.454045 C715.957786,510.082335 716.248761,509.716863 716.521596,509.337815 C716.583637,509.252318 716.63044,509.039126 716.60468,509.024448 C716.471891,508.947024 716.298466,508.829237 716.111255,508.862995" id="arrow" transform="translate(694.500000, 512.000000) scale(1, -1) rotate(56.000000) translate(-694.500000, -512.000000) "></path>
        </g>
    </g>
</svg>