<?xml version="1.0" encoding="UTF-8"?>
<svg width="32px" height="24px" viewBox="0 0 32 24" version="1.1" xmlns="http://www.w3.org/2000/svg" xmlns:xlink="http://www.w3.org/1999/xlink">
    <!-- Generator: Sketch 55.2 (78181) - https://sketchapp.com -->
    <title>Discover – Crédito</title>
    <desc>Created with Sketch.</desc>
    <defs>
        <rect id="path-1" x="0" y="0" width="32" height="24" rx="2"></rect>
    </defs>
    <g id="Lemon" stroke="none" stroke-width="1" fill="none" fill-rule="evenodd">
        <g id="Credit-card" transform="translate(-928.000000, -437.000000)">
            <g id="Modal" transform="translate(430.000000, 79.000000)">
                <g id="Card" transform="translate(30.000000, 315.000000)">
                    <g id="Discover-–-Crédito" transform="translate(468.000000, 43.000000)">
                        <mask id="mask-2" fill="white">
                            <use xlink:href="#path-1"></use>
                        </mask>
                        <use id="Mask" fill="#4D4D4D" xlink:href="#path-1"></use>
                        <g id="discover" mask="url(#mask-2)" fill-rule="nonzero">
                            <g transform="translate(2.500000, 9.000000)" id="Shape">
                                <path d="M11.1313475,0.666470468 C11.4995375,0.666470468 11.808345,0.744364181 12.1841633,0.932270693 L12.1841633,1.92531426 C11.8281783,1.58210037 11.5193679,1.43846801 11.1110025,1.43846801 C10.3083416,1.43846801 9.67708332,2.09379718 9.67708332,2.92466563 C9.67708332,3.80083913 10.2888054,4.41717141 11.1507975,4.41717141 C11.5388212,4.41717141 11.8419092,4.2809799 12.1841633,3.943283 L12.1841633,4.93683763 C11.7949533,5.11755556 11.4795317,5.18891326 11.1110025,5.18891326 C9.80775875,5.18891326 8.79508458,4.2026842 8.79508458,2.93080316 C8.79508458,1.67263108 9.83471499,0.666470468 11.1313475,0.666470468 Z M7.08496084,0.693834605 C7.56603208,0.693834605 8.00623002,0.856221896 8.37426752,1.17369042 L7.92643251,1.75192154 C7.70348416,1.50550296 7.49264041,1.40155616 7.23624665,1.40155616 C6.86736168,1.40155576 6.59871417,1.608658 6.59871417,1.88115619 C6.59871417,2.1148693 6.74953458,2.23856525 7.26310209,2.42597022 C8.23663626,2.77704135 8.52514669,3.08834176 8.52514669,3.77577248 C8.52514669,4.61349514 7.90116918,5.19658543 7.0118,5.19658543 C6.36055127,5.19658543 5.88708667,4.94366963 5.49275707,4.37292827 L6.04557292,3.84780625 C6.24270375,4.22361968 6.57150625,4.42492914 6.97973624,4.42492914 C7.36153874,4.42492914 7.64420585,4.16512946 7.64420585,3.81455982 C7.64420585,3.63283891 7.55858832,3.47701173 7.38761375,3.36684225 C7.30153334,3.31468294 7.13102916,3.23691489 6.79597998,3.12039269 C5.99216585,2.83502226 5.71639,2.5299912 5.71639,1.93383885 C5.71639,1.2256782 6.30862584,0.693834605 7.08496084,0.693834605 Z M16.8650717,0.769278501 L17.7999675,0.769278501 L18.9701333,3.67577746 L20.155355,0.769278501 L21.0831704,0.769278501 L19.1875812,5.20749707 L18.7270508,5.20749707 L16.8650717,0.769278501 Z M0.308919252,0.775927598 L1.56518554,0.775927598 C2.95317041,0.775927598 3.92073584,1.6655045 3.92073584,2.94256766 C3.92073584,3.57934359 3.62473498,4.19502686 3.12418623,4.60360703 C2.70298835,4.94849256 2.22308165,5.10315484 1.55859375,5.10315484 L0.308919252,5.10315484 L0.308919252,0.775927598 Z M4.31453457,0.775927598 L5.17041002,0.775927598 L5.17041002,5.10315484 L4.31453457,5.10315484 L4.31453457,0.775927598 Z M21.4701333,0.775927598 L23.8972983,0.775927598 L23.8972983,1.50913785 L22.3253579,1.50913785 L22.3253579,2.46961673 L23.8393554,2.46961673 L23.8393554,3.20248568 L22.3253579,3.20248568 L22.3253579,4.37054127 L23.8972983,4.37054127 L23.8972983,5.10315484 L21.4701333,5.10315484 L21.4701333,0.775927598 Z M24.4641925,0.775927598 L25.7331542,0.775927598 C26.7202496,0.775927598 27.2858887,1.24338735 27.2858887,2.05352587 C27.2858887,2.71604709 26.93113,3.15083613 26.2864583,3.28023102 L27.6676433,5.10315484 L26.6151529,5.10315484 L25.4305825,3.36479609 L25.3190104,3.36479609 L25.3190104,5.10315484 L24.4641925,5.10315484 L24.4641925,0.775927598 Z M25.3190104,1.45747783 L25.3190104,2.76798164 L25.5690917,2.76798164 C26.1156133,2.76798164 26.4052733,2.53395606 26.4052733,2.09896231 C26.4052733,1.67784423 26.1155613,1.45747783 25.5826008,1.45747783 L25.3190104,1.45747783 Z M1.16414387,1.50913785 L1.16414387,4.37054127 L1.39379884,4.37054127 C1.94684665,4.37054127 2.29611873,4.26605193 2.56502291,4.02665481 C2.86101583,3.76669488 3.03906249,3.35161138 3.03906249,2.93634456 C3.03906249,2.52174596 2.86101583,2.11903711 2.56502291,1.85907718 C2.28233665,1.60680737 1.94684665,1.50913785 1.39379884,1.50913785 L1.16414387,1.50913785 Z" fill="#FFFFFF"></path>
                                <path d="M14.7971191,0.637741057 C16.0862929,0.637741057 17.1313475,1.63442918 17.1313475,2.86566596 L17.1313475,2.86706927 C17.1313475,4.0983056 16.0862929,5.09639748 14.7971191,5.09639748 C13.5079454,5.09639748 12.4628908,4.0983056 12.4628908,2.86706927 L12.4628908,2.86566596 C12.4628908,1.63442918 13.5079454,0.637741057 14.7971191,0.637741057 Z M29.9992465,6.01209167 C28.9138349,6.78690744 20.7877044,12.3244345 6.7178336,14.9993288 L27.7079053,14.9993288 C28.9731399,14.9993288 29.9992465,13.9582842 29.9992465,12.6744012 L29.9992465,6.01209167 Z" fill="#F47216"></path>
                            </g>
                        </g>
                    </g>
                </g>
            </g>
        </g>
    </g>
</svg>