<?xml version="1.0" encoding="UTF-8"?>
<svg width="18px" height="22px" viewBox="0 0 18 22" version="1.1" xmlns="http://www.w3.org/2000/svg" xmlns:xlink="http://www.w3.org/1999/xlink">
    <!-- Generator: Sketch 55.2 (78181) - https://sketchapp.com -->
    <title>file-text</title>
    <desc>Created with Sketch.</desc>
    <g id="Lemon" stroke="none" stroke-width="1" fill="none" fill-rule="evenodd">
        <g id="Let’s-get-some-reviews-Copy-4" transform="translate(-33.000000, -113.000000)" fill="#7985AF" fill-rule="nonzero">
            <g id="Sidebar" transform="translate(30.000000, 79.000000)">
                <g id="Active" transform="translate(0.000000, 33.000000)">
                    <g id="file-text" transform="translate(3.000000, 1.000000)">
                        <path d="M12,3.41421356 L12,6 L14.5857864,6 L12,3.41421356 Z M16,8.04589844 L11,8 C10.4477153,8 10,7.55228475 10,7 L10,2 L3,2 C2.44771525,2 2,2.44771525 2,3 L2,19 C2,19.5522847 2.44771525,20 3,20 L15,20 C15.5522847,20 16,19.5522847 16,19 C16,14.1315104 16,10.4801432 16,8.04589844 Z M11,0 C11.2652165,0 11.5195704,0.10535684 11.7071068,0.292893219 L17.7071068,6.29289322 C17.8946432,6.4804296 18,6.73478351 18,7 L18,19 C18,20.6568542 16.6568542,22 15,22 L3,22 C1.34314575,22 0,20.6568542 0,19 L0,3 C0,1.34314575 1.34314575,0 3,0 L11,0 Z M13,11 C13.5522847,11 14,11.4477153 14,12 C14,12.5522847 13.5522847,13 13,13 L5,13 C4.44771525,13 4,12.5522847 4,12 C4,11.4477153 4.44771525,11 5,11 L13,11 Z M13,15 C13.5522847,15 14,15.4477153 14,16 C14,16.5522847 13.5522847,17 13,17 L5,17 C4.44771525,17 4,16.5522847 4,16 C4,15.4477153 4.44771525,15 5,15 L13,15 Z M7,7 C7.55228475,7 8,7.44771525 8,8 C8,8.55228475 7.55228475,9 7,9 L5,9 C4.44771525,9 4,8.55228475 4,8 C4,7.44771525 4.44771525,7 5,7 L7,7 Z" id="Combined-Shape"></path>
                    </g>
                </g>
            </g>
        </g>
    </g>
</svg>