<?xml version="1.0" encoding="UTF-8"?>
<svg width="77px" height="56px" viewBox="0 0 77 56" version="1.1" xmlns="http://www.w3.org/2000/svg" xmlns:xlink="http://www.w3.org/1999/xlink">
    <!-- Generator: Sketch 55.2 (78181) - https://sketchapp.com -->
    <title>Group</title>
    <desc>Created with Sketch.</desc>
    <g id="Lemon" stroke="none" stroke-width="1" fill="none" fill-rule="evenodd">
        <g id="Let’s-get-some-reviews-Copy" transform="translate(-811.000000, -467.000000)" fill="#304AAB" fill-rule="nonzero">
            <g id="Modal-Copy" transform="translate(140.000000, 146.000000)">
                <g id="Group-3" transform="translate(230.000000, 188.000000)">
                    <g id="List" transform="translate(340.000000, 0.000000)">
                        <g transform="translate(0.000000, 76.000000)" id="Group-2">
                            <g transform="translate(37.000000, 57.000000)">
                                <g id="noun_people_1049244" transform="translate(64.000000, 0.000000)">
                                    <g id="Group">
                                        <path d="M68.4177083,28 L56.1458333,28 C57.1083333,30.1913043 57.3489583,32.5449275 56.9479167,34.8985507 L54.7822917,51.8608696 L54.7822917,51.942029 L54.7822917,52.0231884 C54.5416667,53.1594203 54.140625,54.2144928 53.41875,55.1072464 C53.659375,55.1072464 53.8197917,55.1884058 54.0604167,55.1884058 L70.503125,55.1884058 C72.428125,55.1884058 74.1125,53.8086957 74.5135417,51.8608696 L76.51875,37.8202899 C77.4010417,32.7072464 73.5510417,28 68.4177083,28 Z" id="Path"></path>
                                        <path d="M62.2416667,25.6463768 C66.2520833,25.6463768 69.540625,22.3188406 69.540625,18.2608696 L69.540625,13.9594203 C69.540625,9.90144928 66.2520833,6.57391304 62.2416667,6.57391304 C58.23125,6.57391304 54.9427083,9.90144928 54.9427083,13.9594203 L54.9427083,18.2608696 C54.9427083,22.3188406 58.23125,25.6463768 62.2416667,25.6463768 Z" id="Path"></path>
                                        <path d="M22.2177083,52.0231884 L22.2177083,52.0231884 L19.971875,34.9797101 C19.5708333,32.626087 19.8916667,30.1913043 20.7739583,28.0811594 L8.50208333,28.0811594 C3.36875,28.0811594 -0.48125,32.7884058 0.401041667,37.9014493 L2.40625,51.942029 C2.72708333,53.8898551 4.41145833,55.2695652 6.33645833,55.2695652 L22.859375,55.2695652 C23.1,55.2695652 23.2604167,55.2695652 23.4208333,55.1884058 C22.9395833,54.2956522 22.4583333,53.2405797 22.2177083,52.0231884 L22.2177083,52.0231884 Z" id="Path"></path>
                                        <path d="M14.7583333,25.6463768 C18.76875,25.6463768 22.0572917,22.3188406 22.0572917,18.2608696 L22.0572917,13.9594203 C22.0572917,9.90144928 18.76875,6.57391304 14.7583333,6.57391304 C10.7479167,6.57391304 7.459375,9.90144928 7.459375,13.9594203 L7.459375,18.2608696 C7.459375,22.3188406 10.7479167,25.6463768 14.7583333,25.6463768 Z" id="Path"></path>
                                        <path d="M44.8396507,23.483871 L31.3646507,23.483871 C25.7500673,23.483871 21.4990257,28.6780739 22.541734,34.2780739 L24.7875673,51.3215521 C25.188609,53.4316971 27.0334007,54.973726 29.1188173,54.973726 L47.1656923,54.973726 C49.3313173,54.973726 51.0959007,53.4316971 51.4969423,51.3215521 L53.7427757,34.2780739 C54.7052757,28.5969144 50.454234,23.483871 44.8396507,23.483871 Z" id="Path"></path>
                                        <path d="M38.5,20.9391304 L38.5,20.9391304 C42.9114583,20.9391304 46.5208333,17.2869565 46.5208333,12.8231884 L46.5208333,8.11594203 C46.5208333,3.65217391 42.9114583,0 38.5,0 L38.5,0 C34.0885417,0 30.4791667,3.65217391 30.4791667,8.11594203 L30.4791667,12.8231884 C30.4791667,17.2869565 34.0885417,20.9391304 38.5,20.9391304 Z" id="Path"></path>
                                    </g>
                                </g>
                            </g>
                        </g>
                    </g>
                </g>
            </g>
        </g>
    </g>
</svg>