<?xml version="1.0" encoding="UTF-8"?>
<svg width="32px" height="24px" viewBox="0 0 32 24" version="1.1" xmlns="http://www.w3.org/2000/svg" xmlns:xlink="http://www.w3.org/1999/xlink">
    <!-- Generator: Sketch 55.2 (78181) - https://sketchapp.com -->
    <title>Mastercard – Crédito</title>
    <desc>Created with Sketch.</desc>
    <defs>
        <rect id="path-1" x="0" y="0" width="32" height="24" rx="1.60744186"></rect>
    </defs>
    <g id="Lemon" stroke="none" stroke-width="1" fill="none" fill-rule="evenodd">
        <g id="Credit-card" transform="translate(-844.000000, -437.000000)">
            <g id="Modal" transform="translate(430.000000, 79.000000)">
                <g id="Card" transform="translate(30.000000, 315.000000)">
                    <g id="Mastercard-–-Crédito" transform="translate(384.000000, 43.000000)">
                        <mask id="mask-2" fill="white">
                            <use xlink:href="#path-1"></use>
                        </mask>
                        <rect stroke-opacity="0.378311821" stroke="#979797" stroke-width="0.5" x="0.25" y="0.25" width="31.5" height="23.5" rx="1.60744186"></rect>
                        <g id="mastercard" mask="url(#mask-2)" fill-rule="nonzero">
                            <rect id="Rectangle-1" fill="#000000" x="0" y="0" width="32" height="24" rx="2"></rect>
                            <g id="Group" transform="translate(4.500000, 3.000000)">
                                <path d="M4.18799587,16.9397067 L4.18799587,15.8131733 C4.18799587,15.3811467 3.91237603,15.0996267 3.45997934,15.0996267 C3.22237603,15.0996267 2.9681405,15.17488 2.79088843,15.41696 C2.65307851,15.21024 2.4582438,15.0996267 2.16123967,15.0996267 C1.9369381,15.090379 1.72274437,15.1891407 1.59099174,15.36256 L1.59099174,15.1358933 L1.21700413,15.1358933 L1.21700413,16.9383467 L1.59099174,16.9383467 L1.59099174,15.9070133 C1.59099174,15.58968 1.78772727,15.4378133 2.06334711,15.4378133 C2.33896694,15.4378133 2.49626033,15.6069067 2.49626033,15.9070133 L2.49626033,16.9397067 L2.87024793,16.9397067 L2.87024793,15.9070133 C2.87024793,15.58968 3.06698347,15.4378133 3.34260331,15.4378133 C3.61822314,15.4378133 3.77551653,15.6069067 3.77551653,15.9070133 L3.77551653,16.9397067 L4.18799587,16.9397067 Z M10.3286157,15.15584 L9.63956612,15.15584 L9.63956612,14.61184 L9.26652893,14.61184 L9.26652893,15.15584 L8.87305785,15.15584 L8.87305785,15.4731733 L9.26652893,15.4731733 L9.26652893,16.32 C9.26652893,16.7329867 9.42382231,16.9773333 9.89617769,16.9773333 C10.0751302,16.9737739 10.2504752,16.9286488 10.4070248,16.8458667 L10.2886983,16.5285333 C10.1825222,16.5918439 10.0593862,16.6244389 9.93419421,16.6223733 C9.73745868,16.6223733 9.63909091,16.5094933 9.63909091,16.3218133 L9.63909091,15.4586667 L10.3281405,15.4586667 L10.3281405,15.1581067 L10.3286157,15.15584 Z M13.8318388,15.0996267 C13.6246181,15.0952224 13.4302339,15.1950862 13.3200413,15.36256 L13.3200413,15.1358933 L12.9460537,15.1358933 L12.9460537,16.9383467 L13.3200413,16.9383467 L13.3200413,15.9260533 C13.3200413,15.6254933 13.4773347,15.4378133 13.7334711,15.4378133 C13.8199021,15.4411582 13.9056631,15.45378 13.9891322,15.47544 L14.1074587,15.1372533 C14.0172176,15.1155505 13.9248387,15.1029392 13.8318388,15.0996267 Z M8.53756198,15.2873067 C8.34082645,15.15584 8.06520661,15.0996267 7.77010331,15.0996267 C7.29774793,15.0996267 7.00264463,15.3063467 7.00264463,15.66312 C7.00264463,15.96368 7.21933884,16.13232 7.63229339,16.1889867 L7.82902893,16.2075733 C8.04572314,16.2452 8.18353306,16.3204533 8.18353306,16.4142933 C8.18353306,16.54576 8.02623967,16.64096 7.73066116,16.64096 C7.50496781,16.6453898 7.28391415,16.5795001 7.1010124,16.45328 L6.90427686,16.7348 C7.17989669,16.92248 7.51444215,16.9614667 7.7121281,16.9614667 C8.26336777,16.9614667 8.55847107,16.7175733 8.55847107,16.3793867 C8.55847107,16.0620533 8.32086777,15.9101867 7.90886364,15.85352 L7.7121281,15.8349333 C7.53487603,15.8163467 7.37948347,15.75968 7.37948347,15.6472533 C7.37948347,15.5157867 7.53677686,15.4205867 7.75347107,15.4205867 C7.99107438,15.4205867 8.22582645,15.5144267 8.34415289,15.57064 L8.53756198,15.2873067 Z M14.2452686,16.03848 C14.2452686,16.58248 14.6192562,16.9773333 15.2294215,16.9773333 C15.5050413,16.9773333 15.7017769,16.92112 15.8985124,16.7706133 L15.7017769,16.4890933 C15.5624823,16.5967092 15.3891718,16.6562931 15.209938,16.6581867 C14.8772934,16.6581867 14.6192562,16.4142933 14.6192562,16.05752 C14.6192562,15.7007467 14.8739669,15.4586667 15.209938,15.4586667 C15.3891718,15.4605602 15.5624823,15.5201441 15.7017769,15.62776 L15.8985124,15.34624 C15.7017769,15.1961867 15.5050413,15.13952 15.2294215,15.13952 C14.6387397,15.1018933 14.2452686,15.4962933 14.2452686,16.0407467 L14.2452686,16.03848 Z M11.6078719,15.0996267 C11.0566322,15.0996267 10.6826446,15.4749867 10.6826446,16.03848 C10.6826446,16.6019733 11.0761157,16.9773333 11.6468388,16.9773333 C11.9244914,16.9829278 12.1956305,16.8967616 12.4142975,16.73344 L12.217562,16.4705067 C12.0594195,16.5874097 11.8663177,16.6531548 11.6663223,16.6581867 C11.4106612,16.6581867 11.1350413,16.5081333 11.0960744,16.1889867 L12.493657,16.1889867 L12.493657,16.0389333 C12.493657,15.47544 12.1391529,15.10008 11.6078719,15.10008 L11.6078719,15.0996267 Z M11.5883884,15.4378133 C11.8640083,15.4378133 12.0607438,15.6069067 12.0802273,15.8884267 L11.0571074,15.8884267 C11.1160331,15.6254933 11.2947107,15.4378133 11.5883884,15.4378133 Z M6.49084711,16.03848 L6.49084711,15.1372533 L6.1168595,15.1372533 L6.1168595,15.36392 C5.97904959,15.1948267 5.78421488,15.1009867 5.50669421,15.1009867 C4.97541322,15.1009867 4.58146694,15.4953867 4.58146694,16.03984 C4.58146694,16.5842933 4.97493802,16.9786933 5.50669421,16.9786933 C5.78231405,16.9786933 5.97904959,16.8848533 6.1168595,16.71576 L6.1168595,16.9424267 L6.49084711,16.9424267 L6.49084711,16.03848 Z M4.97541322,16.03848 C4.97541322,15.7002933 5.19210744,15.4378133 5.56609504,15.4378133 C5.92059917,15.4378133 6.13634298,15.7007467 6.13634298,16.03848 C6.13634298,16.3952533 5.89873967,16.6391467 5.56609504,16.6391467 C5.19210744,16.6577333 4.97541322,16.3762133 4.97541322,16.03848 Z M19.5205372,15.0996267 C19.3133165,15.0952224 19.1189323,15.1950862 19.0087397,15.36256 L19.0087397,15.1358933 L18.6347521,15.1358933 L18.6347521,16.9383467 L19.0082645,16.9383467 L19.0082645,15.9260533 C19.0082645,15.6254933 19.1655579,15.4378133 19.4216942,15.4378133 C19.5081252,15.4411582 19.5938863,15.45378 19.6773554,15.47544 L19.7956818,15.1372533 C19.7054407,15.1155505 19.6130618,15.1029392 19.520062,15.0996267 L19.5205372,15.0996267 Z M18.0640289,16.03848 L18.0640289,15.1372533 L17.6900413,15.1372533 L17.6900413,15.36392 C17.5522314,15.1948267 17.3573967,15.1009867 17.079876,15.1009867 C16.548595,15.1009867 16.1546488,15.4953867 16.1546488,16.03984 C16.1546488,16.5842933 16.5481198,16.9786933 17.079876,16.9786933 C17.3554959,16.9786933 17.5522314,16.8848533 17.6900413,16.71576 L17.6900413,16.9424267 L18.0640289,16.9424267 L18.0640289,16.03848 Z M16.548595,16.03848 C16.548595,15.7002933 16.7652893,15.4378133 17.1392769,15.4378133 C17.493781,15.4378133 17.7095248,15.7007467 17.7095248,16.03848 C17.7095248,16.3952533 17.4719215,16.6391467 17.1392769,16.6391467 C16.7652893,16.6577333 16.548595,16.3762133 16.548595,16.03848 Z M21.8628306,16.03848 L21.8628306,14.4237067 L21.488843,14.4237067 L21.488843,15.36256 C21.3510331,15.1934667 21.1561983,15.0996267 20.8786777,15.0996267 C20.3473967,15.0996267 19.9534504,15.4940267 19.9534504,16.03848 C19.9534504,16.5829333 20.3469215,16.9773333 20.8786777,16.9773333 C21.1542975,16.9773333 21.3510331,16.8834933 21.488843,16.7144 L21.488843,16.9410667 L21.8628306,16.9410667 L21.8628306,16.03848 Z M20.3473967,16.03848 C20.3473967,15.7002933 20.5640909,15.4378133 20.9380785,15.4378133 C21.2925826,15.4378133 21.5083264,15.7007467 21.5083264,16.03848 C21.5083264,16.3952533 21.2707231,16.6391467 20.9380785,16.6391467 C20.5636157,16.6581867 20.3469215,16.3766667 20.3469215,16.03848 L20.3473967,16.03848 Z" id="Shape" fill="#FFFFFF"></path>
                                <g>
                                    <polygon id="Rectangle-path" fill="#FF5F00" points="8.10464876 1.46834667 14.9343182 1.46834667 14.9343182 12.0953867 8.10464876 12.0953867"></polygon>
                                    <path d="M8.79369835,6.78186667 C8.79417213,4.71070245 9.78737723,2.75343825 11.4900207,1.46834667 C8.58517854,-0.710436655 4.41286381,-0.393730615 1.90574303,2.19585617 C-0.60137775,4.78544293 -0.60137775,8.77829041 1.90574303,11.3678772 C4.41286381,13.9574639 8.58517854,14.27417 11.4900207,12.0953867 C9.78737723,10.8102951 8.79417213,8.85303089 8.79369835,6.78186667 Z" id="Shape" fill="#EB001B"></path>
                                    <path d="M22.9648366,6.78186667 C22.9667992,9.36798278 21.4202606,11.7280063 18.982395,12.8590844 C16.5445294,13.9901624 13.6436181,13.6935884 11.5123554,12.0953867 C13.215421,10.810611 14.2087534,8.85315084 14.2087534,6.78186667 C14.2087534,4.7105825 13.215421,2.75312236 11.5123554,1.46834667 C13.6436181,-0.12985509 16.5445294,-0.426429054 18.982395,0.704648975 C21.4202606,1.835727 22.9667992,4.19575056 22.9648366,6.78186667 Z" id="Shape" fill="#F79E1B"></path>
                                </g>
                            </g>
                        </g>
                    </g>
                </g>
            </g>
        </g>
    </g>
</svg>