<svg width="298" height="61" viewBox="0 0 298 61" fill="none" xmlns="http://www.w3.org/2000/svg">
<path d="M0 58.498L11.8703 0L31.2281 42.2877L51.2798 0L61.9448 58.498H53.2156L47.7735 25.6545L31.082 61L14.8653 25.6193L8.8023 58.498H0Z" fill="#4A3040"/>
<path d="M80.5721 24.1745V58.498H72.3542V24.1745H80.5721ZM71.1124 9.90237C71.1124 8.51627 71.6359 7.31812 72.6829 6.30791C73.73 5.29771 74.9839 4.79261 76.4449 4.79261C77.9302 4.79261 79.1964 5.29771 80.2434 6.30791C81.2904 7.29463 81.8139 8.50453 81.8139 9.93761C81.8139 11.3707 81.2904 12.5923 80.2434 13.6025C79.2207 14.6127 77.9667 15.1179 76.4814 15.1179C74.9961 15.1179 73.73 14.6127 72.6829 13.6025C71.6359 12.5923 71.1124 11.3589 71.1124 9.90237Z" fill="#4A3040"/>
<path d="M90.9815 24.1745H99.2359V27.346C102.109 24.5973 105.348 23.223 108.951 23.223C113.091 23.223 116.317 24.4799 118.63 26.9936C120.627 29.1315 121.625 32.6203 121.625 37.4599V58.498H113.371V39.3276C113.371 35.9445 112.884 33.607 111.91 32.3148C110.96 30.9992 109.231 30.3414 106.723 30.3414C103.996 30.3414 102.06 31.2107 100.916 32.9492C99.796 34.6642 99.2359 37.6595 99.2359 41.9353V58.498H90.9815V24.1745Z" fill="#4A3040"/>
<path d="M140.252 24.1745V58.498H132.035V24.1745H140.252ZM130.793 9.90237C130.793 8.51627 131.316 7.31812 132.363 6.30791C133.41 5.29771 134.664 4.79261 136.125 4.79261C137.611 4.79261 138.877 5.29771 139.924 6.30791C140.971 7.29463 141.494 8.50453 141.494 9.93761C141.494 11.3707 140.971 12.5923 139.924 13.6025C138.901 14.6127 137.647 15.1179 136.162 15.1179C134.676 15.1179 133.41 14.6127 132.363 13.6025C131.316 12.5923 130.793 11.3589 130.793 9.90237Z" fill="#4A3040"/>
<path d="M160.742 4.08781V50.7805H177.324V58.498H152.232V4.08781H160.742Z" fill="#4A3040"/>
<path d="M192.19 24.1745V43.8735C192.19 49.5588 194.515 52.4015 199.166 52.4015C203.817 52.4015 206.142 49.5588 206.142 43.8735V24.1745H214.36V44.0497C214.36 46.7984 214.007 49.1712 213.301 51.1681C212.619 52.9536 211.438 54.5629 209.758 55.996C206.982 58.3218 203.451 59.4847 199.166 59.4847C194.905 59.4847 191.386 58.3218 188.61 55.996C186.906 54.5629 185.701 52.9536 184.994 51.1681C184.313 49.5706 183.972 47.1978 183.972 44.0497V24.1745H192.19Z" fill="#4A3040"/>
<path d="M235.763 39.9266L222.98 24.1745H232.768L240.694 34.1826L248.766 24.1745H258.846L245.698 39.9266L260.928 58.498H251.14L240.694 45.6707L229.992 58.498H219.948L235.763 39.9266Z" fill="#4A3040"/>
<path d="M297.671 43.2039H272.177C272.397 46.0231 273.346 48.2667 275.026 49.9347C276.706 51.5792 278.861 52.4015 281.491 52.4015C283.536 52.4015 285.229 51.9316 286.568 50.9919C287.883 50.0522 289.38 48.3137 291.06 45.7764L298 49.5118C296.929 51.2738 295.796 52.7891 294.603 54.0578C293.41 55.3029 292.132 56.3366 290.768 57.1589C289.405 57.9576 287.932 58.545 286.349 58.9209C284.766 59.2967 283.049 59.4847 281.199 59.4847C275.891 59.4847 271.63 57.8402 268.415 54.5511C265.201 51.2386 263.594 46.8454 263.594 41.3715C263.594 35.9445 265.153 31.5513 268.269 28.1918C271.41 24.8793 275.574 23.223 280.761 23.223C285.996 23.223 290.135 24.8323 293.179 28.0508C296.198 31.2459 297.708 35.6744 297.708 41.3362L297.671 43.2039ZM289.234 36.7198C288.09 32.491 285.326 30.3767 280.943 30.3767C279.945 30.3767 279.007 30.5294 278.131 30.8348C277.254 31.1167 276.451 31.5396 275.72 32.1034C275.014 32.6438 274.405 33.3016 273.894 34.0768C273.383 34.8521 272.993 35.7331 272.725 36.7198H289.234Z" fill="#4A3040"/>
</svg>
