<?xml version="1.0" encoding="UTF-8"?>
<svg width="32px" height="55px" viewBox="0 0 32 55" version="1.1" xmlns="http://www.w3.org/2000/svg" xmlns:xlink="http://www.w3.org/1999/xlink">
    <!-- Generator: Sketch 55.2 (78181) - https://sketchapp.com -->
    <title>Group</title>
    <desc>Created with Sketch.</desc>
    <g id="Lemon" stroke="none" stroke-width="1" fill="none" fill-rule="evenodd">
        <g id="Let’s-get-some-reviews-Copy" transform="translate(-494.000000, -467.000000)" fill="#304AAB" fill-rule="nonzero">
            <g id="Modal-Copy" transform="translate(140.000000, 146.000000)">
                <g id="Group-3" transform="translate(230.000000, 188.000000)">
                    <g id="One-a-time">
                        <g id="Single" transform="translate(0.000000, 76.000000)">
                            <g id="noun_people_1049244" transform="translate(124.000000, 57.000000)">
                                <g id="Group">
                                    <path d="M22.3976026,23.442623 L8.95760264,23.442623 C3.35760264,23.442623 -0.882397362,28.6277025 0.157602638,34.2178665 L2.39760264,51.2314089 C2.79760264,53.3378475 4.63760264,54.877168 6.71760264,54.877168 L24.7176026,54.877168 C26.8776026,54.877168 28.6376026,53.3378475 29.0376026,51.2314089 L31.2776026,34.2178665 C32.2376026,28.5466857 27.9976026,23.442623 22.3976026,23.442623 Z" id="Path"></path>
                                    <path d="M15.1111111,20.9023521 L15.1111111,20.9023521 C19.5111111,20.9023521 23.1111111,17.256593 23.1111111,12.8006652 L23.1111111,8.10168686 C23.1111111,3.64575909 19.5111111,0 15.1111111,0 L15.1111111,0 C10.7111111,0 7.11111111,3.64575909 7.11111111,8.10168686 L7.11111111,12.8006652 C7.11111111,17.256593 10.7111111,20.9023521 15.1111111,20.9023521 Z" id="Path"></path>
                                </g>
                            </g>
                        </g>
                    </g>
                </g>
            </g>
        </g>
    </g>
</svg>