<?xml version="1.0" encoding="UTF-8"?>
<svg width="130px" height="130px" viewBox="0 0 130 130" version="1.1" xmlns="http://www.w3.org/2000/svg" xmlns:xlink="http://www.w3.org/1999/xlink">
    <!-- Generator: Sketch 55.2 (78181) - https://sketchapp.com -->
    <title>Icon</title>
    <desc>Created with Sketch.</desc>
    <g id="Lemon" stroke="none" stroke-width="1" fill="none" fill-rule="evenodd">
        <g id="4-stars-Desktop-" transform="translate(-655.000000, -250.000000)" fill="#304AAB">
            <g id="Group" transform="translate(352.000000, 250.000000)">
                <g id="Icon" transform="translate(303.000000, 0.000000)">
                    <circle id="Oval" opacity="0.05" cx="65" cy="65" r="65"></circle>
                    <path d="M81.092729,50.3662182 C80.6099388,49.8779273 79.8108378,49.8779273 79.324718,50.3662182 L60.6856869,68.9245972 C60.1995672,69.4195316 59.4037957,69.4195316 58.9176759,68.9245972 L50.7501977,60.6037203 C50.5104674,60.3612357 50.190827,60.2383325 49.8745162,60.2383325 C49.5515462,60.2350108 49.2252466,60.3545923 48.9788571,60.6037203 L45.3729138,63.8523501 C45.1298539,64.0981565 45,64.4070752 45,64.7292809 C45,65.0514865 45.1298539,65.3936223 45.3729138,65.636107 L58.9176759,79.6337818 C59.4037957,80.1220727 60.1995672,80.1220727 60.6856869,79.6337818 L84.6354102,55.7208105 C85.1215299,55.2325195 85.1215299,54.4253446 84.6354102,53.9370536 L81.092729,50.3662182 L81.092729,50.3662182 Z" id="Path" fill-rule="nonzero"></path>
                </g>
            </g>
        </g>
    </g>
</svg>