<?xml version="1.0" encoding="UTF-8"?>
<svg width="24px" height="20px" viewBox="0 0 24 20" version="1.1" xmlns="http://www.w3.org/2000/svg" xmlns:xlink="http://www.w3.org/1999/xlink">
    <!-- Generator: Sketch 55.2 (78181) - https://sketchapp.com -->
    <title>file-text</title>
    <desc>Created with Sketch.</desc>
    <g id="Lemon" stroke="none" stroke-width="1" fill="none" fill-rule="evenodd" opacity="0.5">
        <g id="Admin---account-settings" transform="translate(-31.000000, -114.000000)" fill="#34425C" fill-rule="nonzero">
            <g id="Sidebar" transform="translate(20.000000, 79.000000)">
                <g id="Active" transform="translate(0.000000, 21.000000)">
                    <g id="file-text" transform="translate(11.000000, 14.000000)">
                        <g id="calendar">
                            <g id="user-plus">
                                <path d="M21,8 L23,8 C23.5522847,8 24,8.44771525 24,9 C24,9.55228475 23.5522847,10 23,10 L21,10 L21,12 C21,12.5522847 20.5522847,13 20,13 C19.4477153,13 19,12.5522847 19,12 L19,10 L17,10 C16.4477153,10 16,9.55228475 16,9 C16,8.44771525 16.4477153,8 17,8 L19,8 L19,6 C19,5.44771525 19.4477153,5 20,5 C20.5522847,5 21,5.44771525 21,6 L21,8 Z M17,19 C17,19.5522847 16.5522847,20 16,20 C15.4477153,20 15,19.5522847 15,19 L15,17 C15,15.3431458 13.6568542,14 12,14 L5,14 C3.34314575,14 2,15.3431458 2,17 L2,19 C2,19.5522847 1.55228475,20 1,20 C0.44771525,20 0,19.5522847 0,19 L0,17 C0,14.2385763 2.23857625,12 5,12 L12,12 C14.7614237,12 17,14.2385763 17,17 L17,19 Z M8.5,10 C5.73857625,10 3.5,7.76142375 3.5,5 C3.5,2.23857625 5.73857625,0 8.5,0 C11.2614237,0 13.5,2.23857625 13.5,5 C13.5,7.76142375 11.2614237,10 8.5,10 Z M8.5,8 C10.1568542,8 11.5,6.65685425 11.5,5 C11.5,3.34314575 10.1568542,2 8.5,2 C6.84314575,2 5.5,3.34314575 5.5,5 C5.5,6.65685425 6.84314575,8 8.5,8 Z" id="Combined-Shape"></path>
                            </g>
                        </g>
                    </g>
                </g>
            </g>
        </g>
    </g>
</svg>