<?xml version="1.0" encoding="UTF-8"?>
<svg width="24px" height="20px" viewBox="0 0 24 20" version="1.1" xmlns="http://www.w3.org/2000/svg" xmlns:xlink="http://www.w3.org/1999/xlink">
    <!-- Generator: Sketch 55.2 (78181) - https://sketchapp.com -->
    <title>Combined Shape</title>
    <desc>Created with Sketch.</desc>
    <g id="Lemon" stroke="none" stroke-width="1" fill="none" fill-rule="evenodd">
        <g id="Admin---account-settings" transform="translate(-31.000000, -172.000000)" fill="#304AAB" fill-rule="nonzero">
            <g id="Sidebar" transform="translate(20.000000, 79.000000)">
                <g id="Active-Copy-2" transform="translate(0.000000, 79.000000)">
                    <g id="file-text" transform="translate(11.000000, 14.000000)">
                        <g id="calendar">
                            <g id="user-check">
                                <path d="M17,19 C17,19.5522847 16.5522847,20 16,20 C15.4477153,20 15,19.5522847 15,19 L15,17 C15,15.3431458 13.6568542,14 12,14 L5,14 C3.34314575,14 2,15.3431458 2,17 L2,19 C2,19.5522847 1.55228475,20 1,20 C0.44771525,20 0,19.5522847 0,19 L0,17 C0,14.2385763 2.23857625,12 5,12 L12,12 C14.7614237,12 17,14.2385763 17,17 L17,19 Z M8.5,10 C5.73857625,10 3.5,7.76142375 3.5,5 C3.5,2.23857625 5.73857625,0 8.5,0 C11.2614237,0 13.5,2.23857625 13.5,5 C13.5,7.76142375 11.2614237,10 8.5,10 Z M8.5,8 C10.1568542,8 11.5,6.65685425 11.5,5 C11.5,3.34314575 10.1568542,2 8.5,2 C6.84314575,2 5.5,3.34314575 5.5,5 C5.5,6.65685425 6.84314575,8 8.5,8 Z M17.7071068,8.29289322 L19,9.58578644 L22.2928932,6.29289322 C22.6834175,5.90236893 23.3165825,5.90236893 23.7071068,6.29289322 C24.0976311,6.68341751 24.0976311,7.31658249 23.7071068,7.70710678 L19.7071068,11.7071068 C19.3165825,12.0976311 18.6834175,12.0976311 18.2928932,11.7071068 L16.2928932,9.70710678 C15.9023689,9.31658249 15.9023689,8.68341751 16.2928932,8.29289322 C16.6834175,7.90236893 17.3165825,7.90236893 17.7071068,8.29289322 Z" id="Combined-Shape"></path>
                            </g>
                        </g>
                    </g>
                </g>
            </g>
        </g>
    </g>
</svg>